<svg width="173" height="30" viewBox="0 0 173 30" fill="none" xmlns="http://www.w3.org/2000/svg">
<path d="M58.5337 9.43963V23.6958C58.5337 24.4083 57.9569 24.9782 57.2512 24.9782H56.4573C55.7449 24.9782 55.1749 24.4015 55.1749 23.6958V5.92478C55.1749 5.21231 55.7516 4.64233 56.4573 4.64233H59.1783C59.7211 4.64233 60.2097 4.98839 60.3929 5.4973L65.828 20.8866L71.2631 5.4973C71.4463 4.9816 71.9281 4.64233 72.4777 4.64233H75.1715C75.884 4.64233 76.454 5.21909 76.454 5.92478V23.6958C76.454 24.4083 75.8772 24.9782 75.1715 24.9782H74.4116C73.6991 24.9782 73.1291 24.4015 73.1291 23.6958V9.41248L67.6465 24.1436C67.4565 24.6458 66.9815 24.9782 66.4387 24.9782H65.2037C64.6677 24.9782 64.1859 24.6458 63.9959 24.1368L58.5405 9.43284L58.5337 9.43963Z" fill="#222222"/>
<path d="M89.0203 23.2548C87.7515 24.8086 86.1637 25.3175 84.3588 25.3175C81.1357 25.3175 79.0186 23.7365 79.0186 20.907C79.0186 18.3082 80.8846 17.0054 84.5555 16.3608L88.905 15.5669V14.6373C88.905 13.2259 88.0297 12.5202 86.1094 12.5202C84.7523 12.5202 83.5038 12.9545 83.0424 14.0605C82.832 14.5626 82.3774 14.9223 81.8278 14.9223H81.1696C80.2672 14.9223 79.6429 14.013 79.9686 13.1716C80.8371 10.9256 83.3002 9.95532 86.0823 9.95532C90.1535 9.95532 92.1009 11.6245 92.1009 14.3048V23.7026C92.1009 24.4151 91.5242 24.985 90.8185 24.985H90.3096C89.5971 24.985 89.0271 24.4083 89.0271 23.7026V23.2615L89.0203 23.2548ZM84.9762 22.8341C86.9237 22.8341 88.905 21.7891 88.905 19.2446V17.8603L85.1459 18.6203C83.3952 18.9867 82.3503 19.3803 82.3503 20.7984C82.3503 22.013 83.1713 22.8341 84.9762 22.8341Z" fill="#222222"/>
<path d="M105.123 14.3591L102.286 24.0555C102.123 24.6051 101.621 24.9783 101.051 24.9783H99.5585C99.0156 24.9783 98.5271 24.6322 98.3439 24.1233L94.0555 12.0046C93.7569 11.1699 94.3812 10.2878 95.2701 10.2878H96.0436C96.6 10.2878 97.1021 10.6475 97.2718 11.1835L100.434 21.1106L103.277 11.2174C103.433 10.6678 103.942 10.2878 104.512 10.2878H105.74C106.317 10.2878 106.819 10.6678 106.975 11.2174L109.791 21.0767L112.98 11.1767C113.15 10.6475 113.645 10.2878 114.201 10.2878H114.955C115.843 10.2878 116.461 11.1632 116.169 11.9978L111.901 24.1165C111.718 24.6322 111.236 24.9783 110.687 24.9783H109.173C108.603 24.9783 108.095 24.5983 107.938 24.0487L105.129 14.3523L105.123 14.3591Z" fill="#222222"/>
<path d="M119.073 20.147H119.69C120.247 20.147 120.735 20.5134 120.912 21.0426C121.366 22.4133 122.5 22.8883 124.23 22.8883C126.069 22.8883 127.256 22.2097 127.256 21.0223C127.256 19.9231 126.836 19.4141 123.721 18.9052C119.175 18.1453 117.899 16.6728 117.899 14.2979C117.899 11.5838 120.301 9.94849 123.802 9.94849C127.08 9.94849 129.143 11.1563 129.869 13.2191C130.16 14.0469 129.529 14.9222 128.647 14.9222H128.145C127.582 14.9222 127.1 14.549 126.917 14.013C126.483 12.7305 125.227 12.3777 123.796 12.3777C122.269 12.3777 121.109 13.0291 121.109 14.1894C121.109 15.3497 121.787 15.7704 124.752 16.2521C129.217 17.0121 130.486 18.3692 130.486 20.8323C130.486 23.7432 127.833 25.3242 124.128 25.3242C120.993 25.3242 118.673 24.2997 117.838 21.8637C117.553 21.0291 118.171 20.1538 119.059 20.1538L119.073 20.147Z" fill="#222222"/>
<path d="M131.999 17.6364C131.999 13.2598 134.713 9.94849 139.375 9.94849C144.037 9.94849 146.724 13.253 146.724 17.6364C146.724 22.0198 144.009 25.3242 139.375 25.3242C134.74 25.3242 131.999 22.0198 131.999 17.6364ZM139.368 22.549C142.109 22.549 143.378 20.5405 143.378 17.6296C143.378 14.7186 142.109 12.7102 139.368 12.7102C136.627 12.7102 135.331 14.7186 135.331 17.6296C135.331 20.5405 136.6 22.549 139.368 22.549Z" fill="#222222"/>
<path d="M148.583 17.6364C148.583 13.2598 151.297 9.94849 155.959 9.94849C160.62 9.94849 163.307 13.253 163.307 17.6364C163.307 22.0198 160.593 25.3242 155.959 25.3242C151.324 25.3242 148.583 22.0198 148.583 17.6364ZM155.959 22.549C158.7 22.549 159.969 20.5405 159.969 17.6296C159.969 14.7186 158.7 12.7102 155.959 12.7102C153.217 12.7102 151.921 14.7186 151.921 17.6296C151.921 20.5405 153.19 22.549 155.959 22.549Z" fill="#222222"/>
<path d="M170.513 22.5762C169.794 22.5762 169.38 22.3659 169.19 21.9181C169.102 21.7009 169.068 21.4499 169.068 21.1377V6.09446C169.068 5.38199 168.491 4.81201 167.785 4.81201H167.107C166.394 4.81201 165.824 5.38877 165.824 6.09446V21.5041C165.824 23.1259 166.313 24.103 167.215 24.6187C167.86 24.9919 168.715 25.1479 169.753 25.1479H171.178C171.891 25.1479 172.461 24.5712 172.461 23.8655C172.461 23.153 171.884 22.583 171.178 22.583H170.52L170.513 22.5762Z" fill="#222222"/>
<path d="M44.3156 14.9932C44.3156 16.5267 43.7185 17.9652 42.6328 19.0441L33.3639 28.313C31.1315 30.5454 27.4946 30.5454 25.2622 28.313L22.1476 25.1985L23.4844 23.8618C24.665 22.6811 26.5717 22.6811 27.7456 23.8618L28.7295 24.8456C29.0484 25.1646 29.5709 25.1646 29.8898 24.8456L39.1587 15.5768C39.369 15.3664 39.403 15.1221 39.403 15C39.403 14.7897 39.3215 14.5793 39.1655 14.4165L29.8966 5.14757C29.6862 4.93722 29.442 4.91008 29.313 4.91008C29.1841 4.91008 28.9399 4.94401 28.7363 5.14757L24.8143 9.06954C23.3419 10.542 20.9602 10.542 19.4945 9.06954L17.2214 6.79643L16.5565 6.13145C17.7371 7.31212 19.6438 7.31212 20.8177 6.13145L25.2689 1.68022C26.4021 0.547054 27.9288 -0.0568493 29.537 0.0042195C31.0162 0.0585029 32.4072 0.716689 33.4522 1.76164L42.6396 10.9491C43.7524 12.0619 44.3156 13.5343 44.3156 15V14.9932Z" fill="url(#paint0_linear_428_5880)"/>
<path d="M27.7592 23.8685C26.5785 22.6878 24.6718 22.6878 23.4979 23.8685L22.1612 25.2052L19.0467 28.3197C17.9135 29.4529 16.3868 30.0568 14.7787 29.9957C13.2994 29.9414 11.9084 29.2833 10.8635 28.2383L1.67601 19.0508C0.563198 17.938 7.62939e-06 16.4656 7.62939e-06 14.9999C7.62939e-06 13.4664 0.597124 12.0279 1.68279 10.949L10.9517 1.68016C13.1841 -0.552242 16.8211 -0.552242 19.0535 1.68016L22.168 4.79467L20.8313 6.1314C19.6506 7.31206 17.7439 7.31206 16.57 6.1314L15.5861 5.14751C15.2672 4.8286 14.7447 4.8286 14.4258 5.14751L5.15693 14.4164C4.94658 14.6267 4.91265 14.871 4.91265 14.9932C4.91265 15.2035 4.99408 15.4139 5.15014 15.5767L14.419 24.8456C14.6294 25.0559 14.8737 25.0831 15.0026 25.0831C15.1315 25.0831 15.3758 25.0492 15.5793 24.8456L19.5013 20.9236C20.9737 19.4512 23.3554 19.4512 24.8211 20.9236L27.0942 23.1967L27.7592 23.8617V23.8685Z" fill="url(#paint1_linear_428_5880)"/>
<defs>
<linearGradient id="paint0_linear_428_5880" x1="29.9509" y1="-0.036493" x2="31.3283" y2="29.6972" gradientUnits="userSpaceOnUse">
<stop stop-color="#00D2FF"/>
<stop offset="1" stop-color="#5D17D5"/>
</linearGradient>
<linearGradient id="paint1_linear_428_5880" x1="13.0077" y1="0.757345" x2="14.3919" y2="30.4911" gradientUnits="userSpaceOnUse">
<stop stop-color="#5D17D5"/>
<stop offset="1" stop-color="#00D2FF"/>
</linearGradient>
</defs>
</svg>
